<?xml version="1.0" encoding="UTF-8"?>
<!-- Created with Inkscape (http://www.inkscape.org/) -->
<svg width="677.33mm" height="381mm" version="1.1" viewBox="0 0 677.33 381" xmlns="http://www.w3.org/2000/svg"><defs><clipPath id="clipPath9350"><path d="m0 1080h1920v-1080h-1920z"/></clipPath><clipPath id="clipPath8780"><path d="m0 1080h1920v-1080h-1920z"/></clipPath><clipPath id="clipPath9290"><path d="m0 1080h1920v-1080h-1920z"/></clipPath><clipPath id="clipPath8720"><path d="m0 1080h1920v-1080h-1920z"/></clipPath><clipPath id="clipPath8735"><path d="m0 1080h1920v-1080h-1920z"/></clipPath><clipPath id="clipPath8825"><path d="m0 1080h1920v-1080h-1920z"/></clipPath><clipPath id="clipPath8870"><path d="m0 1080h1920v-1080h-1920z"/></clipPath><clipPath id="clipPath8795"><path d="m0 1080h1920v-1080h-1920z"/></clipPath><clipPath id="clipPath9050"><path d="m0 1080h1920v-1080h-1920z"/></clipPath><clipPath id="clipPath9170"><path d="m0 1080h1920v-1080h-1920z"/></clipPath><clipPath id="clipPath8810"><path d="m0 1080h1920v-1080h-1920z"/></clipPath><clipPath id="clipPath9155"><path d="m0 1080h1920v-1080h-1920z"/></clipPath><clipPath id="clipPath9365"><path d="m0 1080h1920v-1080h-1920z"/></clipPath><clipPath id="clipPath9020"><path d="m0 1080h1920v-1080h-1920z"/></clipPath><clipPath id="clipPath8915"><path d="m0 1080h1920v-1080h-1920z"/></clipPath><clipPath id="clipPath9455"><path d="m0 1080h1920v-1080h-1920z"/></clipPath><clipPath id="clipPath9035"><path d="m0 1080h1920v-1080h-1920z"/></clipPath><clipPath id="clipPath8705"><path d="m0 1080h1920v-1080h-1920z"/></clipPath><clipPath id="clipPath8750"><path d="m0 1080h1920v-1080h-1920z"/></clipPath><clipPath id="clipPath8840"><path d="m0 1080h1920v-1080h-1920z"/></clipPath><clipPath id="clipPath9560"><path d="m0 1080h1920v-1080h-1920z"/></clipPath><clipPath id="clipPath8945"><path d="m0 1080h1920v-1080h-1920z"/></clipPath><clipPath id="clipPath9185"><path d="m0 1080h1920v-1080h-1920z"/></clipPath><clipPath id="clipPath9200"><path d="m0 1080h1920v-1080h-1920z"/></clipPath><clipPath id="clipPath9230"><path d="m0 1080h1920v-1080h-1920z"/></clipPath><clipPath id="clipPath9140"><path d="m0 1080h1920v-1080h-1920z"/></clipPath><clipPath id="clipPath9500"><path d="m0 1080h1920v-1080h-1920z"/></clipPath><clipPath id="clipPath9005"><path d="m0 1080h1920v-1080h-1920z"/></clipPath><clipPath id="clipPath9605"><path d="m0 1080h1920v-1080h-1920z"/></clipPath><clipPath id="clipPath9590"><path d="m0 1080h1920v-1080h-1920z"/></clipPath><clipPath id="clipPath9260"><path d="m0 1080h1920v-1080h-1920z"/></clipPath><clipPath id="clipPath8885"><path d="m0 1080h1920v-1080h-1920z"/></clipPath><clipPath id="clipPath8765"><path d="m0 1080h1920v-1080h-1920z"/></clipPath><clipPath id="clipPath9620"><path d="m0 1080h1920v-1080h-1920z"/></clipPath><clipPath id="clipPath9545"><path d="m0 1080h1920v-1080h-1920z"/></clipPath><clipPath id="clipPath9575"><path d="m0 1080h1920v-1080h-1920z"/></clipPath><clipPath id="clipPath9305"><path d="m0 1080h1920v-1080h-1920z"/></clipPath><clipPath id="clipPath8900"><path d="m0 1080h1920v-1080h-1920z"/></clipPath><clipPath id="clipPath9410"><path d="m0 1080h1920v-1080h-1920z"/></clipPath><clipPath id="clipPath9065"><path d="m0 1080h1920v-1080h-1920z"/></clipPath><clipPath id="clipPath9515"><path d="m0 1080h1920v-1080h-1920z"/></clipPath><clipPath id="clipPath9245"><path d="m0 1080h1920v-1080h-1920z"/></clipPath><clipPath id="clipPath9080"><path d="m0 1080h1920v-1080h-1920z"/></clipPath><clipPath id="clipPath9275"><path d="m0 1080h1920v-1080h-1920z"/></clipPath><clipPath id="clipPath8975"><path d="m0 1080h1920v-1080h-1920z"/></clipPath><clipPath id="clipPath9380"><path d="m0 1080h1920v-1080h-1920z"/></clipPath><clipPath id="clipPath9635"><path d="m0 1080h1920v-1080h-1920z"/></clipPath><clipPath id="clipPath8960"><path d="m0 1080h1920v-1080h-1920z"/></clipPath><clipPath id="clipPath8690"><path d="m0 1080h1920v-1080h-1920z"/></clipPath><clipPath id="clipPath9110"><path d="m0 1080h1920v-1080h-1920z"/></clipPath><clipPath id="clipPath9665"><path d="m0 1080h1920v-1080h-1920z"/></clipPath><clipPath id="clipPath8990"><path d="m0 1080h1920v-1080h-1920z"/></clipPath><clipPath id="clipPath9335"><path d="m0 1080h1920v-1080h-1920z"/></clipPath><clipPath id="clipPath9125"><path d="m0 1080h1920v-1080h-1920z"/></clipPath><clipPath id="clipPath9440"><path d="m0 1080h1920v-1080h-1920z"/></clipPath><clipPath id="clipPath9095"><path d="m0 1080h1920v-1080h-1920z"/></clipPath><clipPath id="clipPath20"><path d="m0 1080h1920v-1080h-1920z"/></clipPath><clipPath id="clipPath28"><path d="m0 1258.5h2486.9v-1320h-2486.9z"/></clipPath><clipPath id="clipPath32"><path d="m0 0h1920v1080h-1920z"/></clipPath></defs><g transform="translate(591.62 302.5)"><g transform="matrix(.35278 0 0 -.35278 -591.62 78.496)"><path d="m0 0h1920v1080h-1920z" fill="#273e47"/><g fill="none" stroke="#acc12f" stroke-linecap="round" stroke-miterlimit="10"><path d="m312.84 999.82" clip-path="url(#clipPath9350)"/><path d="m308.8 999.82h-42.336" clip-path="url(#clipPath8780)" stroke-dasharray="0, 4.032"/><path d="m264.45 999.82" clip-path="url(#clipPath9290)"/><path d="m264.45 1003.8v90.72" clip-path="url(#clipPath8720)" stroke-dasharray="0, 4.032"/><path d="m264.45 1092.6v-90.72" clip-path="url(#clipPath8735)" stroke-dasharray="0, 4.032"/><path d="m264.45 999.82" clip-path="url(#clipPath8825)"/><path d="m260.42 999.82h-90.72" clip-path="url(#clipPath8870)" stroke-dasharray="0, 4.032"/><path d="m167.68 999.82" clip-path="url(#clipPath8795)"/><path d="m167.68 1003.8v90.72" clip-path="url(#clipPath9050)" stroke-dasharray="0, 4.032"/><path d="m264.45 903.05" clip-path="url(#clipPath9170)"/><path d="m260.42 903.05h-90.72" clip-path="url(#clipPath8810)" stroke-dasharray="0, 4.032"/><path d="m167.68 903.05" clip-path="url(#clipPath9155)"/><path d="m167.68 907.08v90.72" clip-path="url(#clipPath9365)" stroke-dasharray="0, 4.032"/><path d="m167.68 999.82" clip-path="url(#clipPath9020)"/><path d="m171.71 999.82h90.72" clip-path="url(#clipPath8915)" stroke-dasharray="0, 4.032"/><path d="m264.45 999.82" clip-path="url(#clipPath9455)"/><path d="m167.68 806.28" clip-path="url(#clipPath9035)"/><path d="m167.68 810.31v90.72" clip-path="url(#clipPath8705)" stroke-dasharray="0, 4.032"/><path d="m167.68 903.05" clip-path="url(#clipPath8750)"/><path d="m167.68 1092.6v-90.72" clip-path="url(#clipPath8840)" stroke-dasharray="0, 4.032"/><path d="m167.68 999.82" clip-path="url(#clipPath9560)"/><path d="m163.65 999.82h-90.72" clip-path="url(#clipPath8945)" stroke-dasharray="0, 4.032"/><path d="m70.914 999.82" clip-path="url(#clipPath9185)"/><path d="m70.914 1003.8v90.72" clip-path="url(#clipPath9200)" stroke-dasharray="0, 4.032"/><path d="m167.68 999.82" clip-path="url(#clipPath9230)"/><path d="m167.68 995.79v-90.72" clip-path="url(#clipPath9140)" stroke-dasharray="0, 4.032"/><path d="m167.68 903.05" clip-path="url(#clipPath9500)"/><path d="m163.65 903.05h-90.72" clip-path="url(#clipPath9005)" stroke-dasharray="0, 4.032"/><path d="m70.914 903.05" clip-path="url(#clipPath9605)"/><path d="m70.914 907.08v90.72" clip-path="url(#clipPath9590)" stroke-dasharray="0, 4.032"/><path d="m70.914 999.82" clip-path="url(#clipPath9260)"/><path d="m74.946 999.82h90.72" clip-path="url(#clipPath8885)" stroke-dasharray="0, 4.032"/><path d="m70.914 806.28" clip-path="url(#clipPath8765)"/><path d="m70.914 810.31v90.72" clip-path="url(#clipPath9620)" stroke-dasharray="0, 4.032"/><path d="m70.914 903.05" clip-path="url(#clipPath9545)"/><path d="m74.946 903.05h90.72" clip-path="url(#clipPath9575)" stroke-dasharray="0, 4.032"/><path d="m167.68 903.05" clip-path="url(#clipPath9305)"/><path d="m167.68 899.02v-90.72" clip-path="url(#clipPath8900)" stroke-dasharray="0, 4.032"/><path d="m167.68 806.28" clip-path="url(#clipPath9410)"/><path d="m70.914 1092.6v-90.72" clip-path="url(#clipPath9065)" stroke-dasharray="0, 4.032"/><path d="m70.914 999.82" clip-path="url(#clipPath9515)"/><path d="m66.882 999.82h-90.72" clip-path="url(#clipPath9245)" stroke-dasharray="0, 4.032"/><path d="m70.914 999.82" clip-path="url(#clipPath9080)"/><path d="m70.914 995.79v-90.72" clip-path="url(#clipPath9275)" stroke-dasharray="0, 4.032"/><path d="m70.914 903.05" clip-path="url(#clipPath8975)"/><g stroke-dasharray="0, 4.032"><path d="m66.882 903.05h-90.72" clip-path="url(#clipPath9380)"/><path d="m-21.822 999.82h90.72" clip-path="url(#clipPath9635)"/><path d="m-21.822 903.05h90.72" clip-path="url(#clipPath8960)"/></g><path d="m70.914 903.05" clip-path="url(#clipPath8690)"/><path d="m70.914 899.02v-90.72" clip-path="url(#clipPath9110)" stroke-dasharray="0, 4.032"/><path d="m70.914 806.28" clip-path="url(#clipPath9665)"/><path d="m66.882 806.28h-90.72" clip-path="url(#clipPath8990)" stroke-dasharray="0, 4.032"/><g stroke-dasharray="0, 4"><path d="m264.45 939.16v-73.66" clip-path="url(#clipPath9335)"/><path d="m70.914 806.28v-79.437" clip-path="url(#clipPath9125)"/><path d="m198.01 806.28h-66.438" clip-path="url(#clipPath9440)"/><path d="m167.68 774.51v-27.442" clip-path="url(#clipPath9095)"/></g></g><g clip-path="url(#clipPath20)"><g clip-path="url(#clipPath28)" opacity=".25"><g clip-path="url(#clipPath32)"><g transform="translate(1562.5 665.65)" fill="none" stroke="#acc12f" stroke-miterlimit="10" stroke-width="1.5"><path d="m0 0v484h-526.2z"/><path d="m0 0v-726.34h726.35z"/></g><g transform="translate(1760 773.77)"><path d="m0 0v484h-526.2z" fill="none" stroke="#acc12f" stroke-miterlimit="10" stroke-width="1.5"/></g><g transform="translate(2486.4 47.43)"><path d="m0 0-726.35 726.34v-834.46" fill="none" stroke="#acc12f" stroke-miterlimit="10" stroke-width="1.5"/></g></g></g></g></g></g></svg>
