<?xml version="1.0" encoding="UTF-8" standalone="no"?>
<!-- Created with Inkscape (http://www.inkscape.org/) -->

<svg
   width="677.33331mm"
   height="381mm"
   viewBox="0 0 677.33331 381"
   version="1.1"
   id="svg7215"
   inkscape:version="1.2.2 (b0a8486541, 2022-12-01)"
   sodipodi:docname="app-vector-slide2.svg"
   xmlns:inkscape="http://www.inkscape.org/namespaces/inkscape"
   xmlns:sodipodi="http://sodipodi.sourceforge.net/DTD/sodipodi-0.dtd"
   xmlns="http://www.w3.org/2000/svg"
   xmlns:svg="http://www.w3.org/2000/svg">
  <sodipodi:namedview
     id="namedview7217"
     pagecolor="#ffffff"
     bordercolor="#666666"
     borderopacity="1.0"
     inkscape:showpageshadow="2"
     inkscape:pageopacity="0.0"
     inkscape:pagecheckerboard="0"
     inkscape:deskcolor="#d1d1d1"
     inkscape:document-units="mm"
     showgrid="false"
     inkscape:zoom="0.2973261"
     inkscape:cx="353.1476"
     inkscape:cy="721.43011"
     inkscape:window-width="2560"
     inkscape:window-height="1376"
     inkscape:window-x="0"
     inkscape:window-y="0"
     inkscape:window-maximized="1"
     inkscape:current-layer="layer1" />
  <defs
     id="defs7212">
    <clipPath
       clipPathUnits="userSpaceOnUse"
       id="clipPath650">
      <path
         d="M 0,1080 H 1920 V 0 H 0 Z"
         id="path648" />
    </clipPath>
    <clipPath
       clipPathUnits="userSpaceOnUse"
       id="clipPath658">
      <path
         d="M 17.5957,1062.53 H 1901.88 V 17.1105 H 17.5957 Z"
         id="path656" />
    </clipPath>
    <clipPath
       clipPathUnits="userSpaceOnUse"
       id="clipPath774">
      <path
         d="M 0,1080 H 1920 V 0 H 0 Z"
         id="path772" />
    </clipPath>
    <clipPath
       clipPathUnits="userSpaceOnUse"
       id="clipPath832">
      <path
         d="M 0,1080 H 1920 V 0 H 0 Z"
         id="path830" />
    </clipPath>
    <clipPath
       clipPathUnits="userSpaceOnUse"
       id="clipPath840">
      <path
         d="M 40.7777,1044.3 H 85.0934 V 999.263 H 40.7777 Z"
         id="path838" />
    </clipPath>
    <clipPath
       clipPathUnits="userSpaceOnUse"
       id="clipPath650-3">
      <path
         d="M 0,1080 H 1920 V 0 H 0 Z"
         id="path648-6" />
    </clipPath>
    <clipPath
       clipPathUnits="userSpaceOnUse"
       id="clipPath658-7">
      <path
         d="M 17.5957,1062.53 H 1901.88 V 17.1105 H 17.5957 Z"
         id="path656-5" />
    </clipPath>
    <clipPath
       clipPathUnits="userSpaceOnUse"
       id="clipPath686">
      <path
         d="M 874.129,1220.09 H 2075.77 V 74.605 H 874.129 Z"
         id="path684" />
    </clipPath>
    <clipPath
       clipPathUnits="userSpaceOnUse"
       id="clipPath774-3">
      <path
         d="M 0,1080 H 1920 V 0 H 0 Z"
         id="path772-5" />
    </clipPath>
    <clipPath
       clipPathUnits="userSpaceOnUse"
       id="clipPath798">
      <path
         d="M 0,-1580 H 1920 V -500 H 0 Z"
         id="path796" />
    </clipPath>
    <clipPath
       clipPathUnits="userSpaceOnUse"
       id="clipPath806">
      <path
         d="M 699,58.6988 H 1986.4 V -1773.42 H 699 Z"
         id="path804" />
    </clipPath>
    <clipPath
       clipPathUnits="userSpaceOnUse"
       id="clipPath832-6">
      <path
         d="M 0,1080 H 1920 V 0 H 0 Z"
         id="path830-2" />
    </clipPath>
    <clipPath
       clipPathUnits="userSpaceOnUse"
       id="clipPath840-9">
      <path
         d="M 40.7777,1044.3 H 85.0934 V 999.263 H 40.7777 Z"
         id="path838-1" />
    </clipPath>
    <clipPath
       clipPathUnits="userSpaceOnUse"
       id="clipPath8381">
      <g
         id="g8385"
         transform="matrix(2.8346458,0,0,-2.8346458,164.85099,1033.9804)">
        <path
           d="M -58.155763,364.7653 H 619.17756 V -16.234692 H -58.155763 Z"
           id="path8383"
           style="stroke-width:0.352778" />
      </g>
    </clipPath>
    <clipPath
       clipPathUnits="userSpaceOnUse"
       id="clipPath8538">
      <g
         id="g8542"
         transform="matrix(2.8346458,0,0,-2.8346458,14.547086,-9.8228994)">
        <path
           d="M -58.155763,-16.234692 H 619.17756 V 364.7653 H -58.155763 Z"
           id="path8540"
           style="stroke-width:0.352778" />
      </g>
    </clipPath>
    <clipPath
       clipPathUnits="userSpaceOnUse"
       id="clipPath8544">
      <g
         id="g8548"
         transform="matrix(2.8346458,0,0,-2.8346458,164.85099,1033.9804)">
        <path
           d="M -58.155763,-16.234692 H 619.17756 V 364.7653 H -58.155763 Z"
           id="path8546"
           style="stroke-width:0.352778" />
      </g>
    </clipPath>
  </defs>
  <g
     inkscape:label="Layer 1"
     inkscape:groupmode="layer"
     id="layer1"
     transform="translate(58.155763,16.234692)">
    <path
       d="M -58.155763,364.7653 H 619.17756 V -16.234686 H -58.155763 Z"
       style="fill:#273e47;fill-opacity:1;fill-rule:nonzero;stroke:none;stroke-width:0.352778"
       id="path642" />
    <g
       id="g644"
       transform="matrix(0.35277777,0,0,-0.35277777,-58.155763,364.7653)">
      <g
         id="g646"
         clip-path="url(#clipPath650-3)">
        <g
           id="g652">
          <g
             id="g654" />
          <g
             id="g666">
            <g
               clip-path="url(#clipPath658-7)"
               opacity="0.5"
               id="g664">
              <g
                 transform="translate(1901.877,27.1158)"
                 id="g662">
                <path
                   d="m 0,0 v 612.974 c 0,2.797 -1.172,5.466 -3.23,7.36 l -448.396,412.438 c -1.846,1.698 -4.262,2.64 -6.77,2.64 h -1415.885 c -5.523,0 -10,-4.477 -10,-10 V 621.505 c 0,-2.653 1.053,-5.196 2.929,-7.071 l 621.51,-621.51 c 1.875,-1.876 4.419,-2.929 7.071,-2.929 L -10,-10 c 5.523,0 10,4.477 10,10"
                   style="fill:#3a4d56;fill-opacity:1;fill-rule:nonzero;stroke:none"
                   id="path660" />
              </g>
            </g>
          </g>
        </g>
      </g>
    </g>
    <g
       id="g680"
       transform="matrix(0.35277777,0,0,-0.35277777,-58.155763,364.7653)"
       clip-path="url(#clipPath8381)">
      <g
         id="g682" />
      <g
         id="g762">
        <g
           clip-path="url(#clipPath686)"
           opacity="0.25"
           id="g760">
          <g
             transform="translate(1267.1462,846.9599)"
             id="g690">
            <path
               d="m 0,0 h 365.141 c 8.096,0 14.66,-6.564 14.66,-14.66 v -354.11 c 0,-8.097 -6.564,-14.66 -14.66,-14.66 L 0,-383.43 c -8.097,0 -14.66,6.563 -14.66,14.66 V -14.66 C -14.66,-6.564 -8.097,0 0,0 Z m 525.201,103.195 c 0,16.193 -13.127,29.321 -29.32,29.321 h -22.637 -41.928 c -13.128,0 -24.656,-8.727 -28.219,-21.362 L 393.466,77.01 c -1.52,-5.39 -8.278,-7.154 -12.238,-3.194 l -41.522,41.523 c -10.997,10.998 -25.913,17.177 -41.466,17.177 H 74.911 c -15.553,0 -30.469,-6.179 -41.466,-17.177 L -142.886,-60.994 c -10.997,-10.997 -17.175,-25.912 -17.175,-41.465 v -178.43 c 0,-15.552 6.178,-30.468 17.176,-41.465 L 33.531,-498.77 c 10.997,-10.997 25.913,-17.176 41.465,-17.176 h 223.159 c 15.552,0 30.468,6.179 41.465,17.176 l 41.639,41.638 c 3.962,3.963 10.724,2.194 12.24,-3.2 l 9.613,-34.223 c 3.554,-12.649 15.089,-21.391 28.228,-21.391 h 64.541 c 16.193,0 29.32,13.128 29.32,29.321 z"
               style="fill:none;stroke:#acc12f;stroke-width:1.5;stroke-linecap:butt;stroke-linejoin:miter;stroke-miterlimit:10;stroke-dasharray:none;stroke-opacity:1"
               id="path688" />
          </g>
          <g
             transform="translate(2075.0154,322.088)"
             id="g694">
            <path
               d="m 0,0 v 374.149 c 0,15.232 -12.348,27.579 -27.579,27.579 h -90.242 c -15.232,0 -27.58,-12.347 -27.58,-27.579 V -99.557 c 0,-8.097 -6.563,-14.66 -14.66,-14.66 h -372.68 c -8.097,0 -14.66,6.563 -14.66,14.66 v 473.706 c 0,15.232 -12.348,27.579 -27.579,27.579 h -90.243 c -15.231,0 -27.579,-12.347 -27.579,-27.579 V 0.469 c 0,-23.329 9.268,-45.702 25.764,-62.198 l 159.24,-159.241 c 16.496,-16.496 38.869,-25.763 62.198,-25.763 h 198.868 c 23.329,0 45.703,9.268 62.199,25.764 l 158.77,158.771 C -9.267,-45.702 0,-23.329 0,0 Z"
               style="fill:none;stroke:#acc12f;stroke-width:1.5;stroke-linecap:butt;stroke-linejoin:miter;stroke-miterlimit:10;stroke-dasharray:none;stroke-opacity:1"
               id="path692" />
          </g>
          <g
             transform="translate(1363.3412,1206.5317)"
             id="g698">
            <path
               d="m 0,0 -149.917,-219.99 c -2.73,-4.007 -7.265,-6.405 -12.114,-6.405 h -166.37 c -8.097,0 -14.66,6.564 -14.66,14.661 v 195.222 c 0,16.194 -13.128,29.321 -29.321,29.321 h -86.759 c -16.194,0 -29.321,-13.127 -29.321,-29.321 v -589.82 c 0,-16.193 13.127,-29.32 29.321,-29.32 h 86.759 c 16.193,0 29.321,13.127 29.321,29.32 v 231.588 c 0,8.096 6.563,14.66 14.66,14.66 H 4.233 c 8.089,0 14.649,-6.551 14.66,-14.639 l 0.331,-231.65 c 0.023,-16.177 13.144,-29.279 29.321,-29.279 h 86.407 c 16.194,0 29.321,13.127 29.321,29.32 v 220.96 c 0,8.201 -3.435,16.028 -9.471,21.58 L 20.881,-240.613 c -5.345,4.917 -6.285,13.006 -2.21,19.017 l 127.878,188.632 c 13.199,19.469 -0.748,45.773 -24.269,45.773 H 24.229 C 14.532,12.809 5.461,8.014 0,0 Z"
               style="fill:none;stroke:#acc12f;stroke-width:1.5;stroke-linecap:butt;stroke-linejoin:miter;stroke-miterlimit:10;stroke-dasharray:none;stroke-opacity:1"
               id="path696" />
          </g>
          <g
             transform="translate(1252.486,829.7964)"
             id="g702">
            <path
               d="M 0,0 V 0 C 0,9.479 -7.684,17.163 -17.163,17.163 -7.684,17.163 0,24.848 0,34.327 0,24.848 7.684,17.163 17.163,17.163 7.684,17.163 0,9.479 0,0 Z"
               style="fill:#acc12f;fill-opacity:1;fill-rule:nonzero;stroke:none"
               id="path700" />
          </g>
          <g
             transform="translate(1252.486,829.7964)"
             id="g706">
            <path
               d="M 0,0 V 0 C 0,9.479 -7.684,17.163 -17.163,17.163 -7.684,17.163 0,24.848 0,34.327 0,24.848 7.684,17.163 17.163,17.163 7.684,17.163 0,9.479 0,0 Z"
               style="fill:none;stroke:#acc12f;stroke-width:1.5;stroke-linecap:butt;stroke-linejoin:miter;stroke-miterlimit:10;stroke-dasharray:none;stroke-opacity:1"
               id="path704" />
          </g>
          <g
             transform="translate(1382.2135,446.3663)"
             id="g710">
            <path
               d="M 0,0 V 0 C 0,9.479 -7.684,17.163 -17.163,17.163 -7.684,17.163 0,24.848 0,34.327 0,24.848 7.684,17.163 17.163,17.163 7.684,17.163 0,9.479 0,0 Z"
               style="fill:#acc12f;fill-opacity:1;fill-rule:nonzero;stroke:none"
               id="path708" />
          </g>
          <g
             transform="translate(1382.2135,446.3663)"
             id="g714">
            <path
               d="M 0,0 V 0 C 0,9.479 -7.684,17.163 -17.163,17.163 -7.684,17.163 0,24.848 0,34.327 0,24.848 7.684,17.163 17.163,17.163 7.684,17.163 0,9.479 0,0 Z"
               style="fill:none;stroke:#acc12f;stroke-width:1.5;stroke-linecap:butt;stroke-linejoin:miter;stroke-miterlimit:10;stroke-dasharray:none;stroke-opacity:1"
               id="path712" />
          </g>
          <g
             transform="translate(1382.2135,313.8508)"
             id="g718">
            <path
               d="M 0,0 V 0 C 0,9.479 -7.684,17.163 -17.163,17.163 -7.684,17.163 0,24.848 0,34.327 v 0 0 C 0,24.848 7.684,17.163 17.163,17.163 7.684,17.163 0,9.479 0,0"
               style="fill:#acc12f;fill-opacity:1;fill-rule:nonzero;stroke:none"
               id="path716" />
          </g>
          <g
             transform="translate(1382.2135,313.8508)"
             id="g722">
            <path
               d="M 0,0 V 0 C 0,9.479 -7.684,17.163 -17.163,17.163 -7.684,17.163 0,24.848 0,34.327 v 0 0 C 0,24.848 7.684,17.163 17.163,17.163 7.684,17.163 0,9.479 0,0 Z"
               style="fill:none;stroke:#acc12f;stroke-width:1.5;stroke-linecap:butt;stroke-linejoin:miter;stroke-miterlimit:10;stroke-dasharray:none;stroke-opacity:1"
               id="path720" />
          </g>
          <g
             transform="translate(1527.6141,446.3663)"
             id="g726">
            <path
               d="M 0,0 V 0 C 0,9.479 -7.684,17.163 -17.163,17.163 -7.684,17.163 0,24.848 0,34.327 0,24.848 7.684,17.163 17.163,17.163 7.684,17.163 0,9.479 0,0 Z"
               style="fill:#acc12f;fill-opacity:1;fill-rule:nonzero;stroke:none"
               id="path724" />
          </g>
          <g
             transform="translate(1527.6141,446.3663)"
             id="g730">
            <path
               d="M 0,0 V 0 C 0,9.479 -7.684,17.163 -17.163,17.163 -7.684,17.163 0,24.848 0,34.327 0,24.848 7.684,17.163 17.163,17.163 7.684,17.163 0,9.479 0,0 Z"
               style="fill:none;stroke:#acc12f;stroke-width:1.5;stroke-linecap:butt;stroke-linejoin:miter;stroke-miterlimit:10;stroke-dasharray:none;stroke-opacity:1"
               id="path728" />
          </g>
          <g
             transform="translate(1382.2135,829.7964)"
             id="g734">
            <path
               d="M 0,0 V 0 C 0,9.479 -7.684,17.163 -17.163,17.163 -7.684,17.163 0,24.848 0,34.327 0,24.848 7.684,17.163 17.163,17.163 7.684,17.163 0,9.479 0,0 Z"
               style="fill:#acc12f;fill-opacity:1;fill-rule:nonzero;stroke:none"
               id="path732" />
          </g>
          <g
             transform="translate(1382.2135,829.7964)"
             id="g738">
            <path
               d="M 0,0 V 0 C 0,9.479 -7.684,17.163 -17.163,17.163 -7.684,17.163 0,24.848 0,34.327 0,24.848 7.684,17.163 17.163,17.163 7.684,17.163 0,9.479 0,0 Z"
               style="fill:none;stroke:#acc12f;stroke-width:1.5;stroke-linecap:butt;stroke-linejoin:miter;stroke-miterlimit:10;stroke-dasharray:none;stroke-opacity:1"
               id="path736" />
          </g>
          <g
             transform="translate(1527.6141,313.8508)"
             id="g742">
            <path
               d="M 0,0 V 0 C 0,9.479 -7.684,17.163 -17.163,17.163 -7.684,17.163 0,24.848 0,34.327 v 0 0 C 0,24.848 7.684,17.163 17.163,17.163 7.684,17.163 0,9.479 0,0"
               style="fill:#acc12f;fill-opacity:1;fill-rule:nonzero;stroke:none"
               id="path740" />
          </g>
          <g
             transform="translate(1527.6141,313.8508)"
             id="g746">
            <path
               d="M 0,0 V 0 C 0,9.479 -7.684,17.163 -17.163,17.163 -7.684,17.163 0,24.848 0,34.327 v 0 0 C 0,24.848 7.684,17.163 17.163,17.163 7.684,17.163 0,9.479 0,0 Z"
               style="fill:none;stroke:#acc12f;stroke-width:1.5;stroke-linecap:butt;stroke-linejoin:miter;stroke-miterlimit:10;stroke-dasharray:none;stroke-opacity:1"
               id="path744" />
          </g>
          <g
             transform="translate(1695.9116,391.952)"
             id="g750">
            <path
               d="m 0,0 c 0,23.717 -19.227,42.944 -42.944,42.944 -23.718,0 -42.944,-19.227 -42.944,-42.944 0,-23.717 19.226,-42.944 42.944,-42.944 C -19.227,-42.944 0,-23.717 0,0 Z"
               style="fill:none;stroke:#acc12f;stroke-width:1.5;stroke-linecap:round;stroke-linejoin:round;stroke-miterlimit:4;stroke-dasharray:0, 6.917;stroke-dashoffset:0;stroke-opacity:1"
               id="path748" />
          </g>
          <g
             transform="translate(1695.9116,927.7747)"
             id="g754">
            <path
               d="m 0,0 c 0,23.717 -19.227,42.944 -42.944,42.944 -23.718,0 -42.944,-19.227 -42.944,-42.944 0,-23.717 19.226,-42.944 42.944,-42.944 C -19.227,-42.944 0,-23.717 0,0 Z"
               style="fill:none;stroke:#acc12f;stroke-width:1.5;stroke-linecap:round;stroke-linejoin:round;stroke-miterlimit:4;stroke-dasharray:0, 6.917;stroke-dashoffset:0;stroke-opacity:1"
               id="path752" />
          </g>
          <g
             transform="translate(1425.1578,979.4754)"
             id="g758">
            <path
               d="m 0,0 c 0,23.717 -19.227,42.944 -42.944,42.944 -23.718,0 -42.944,-19.227 -42.944,-42.944 0,-23.717 19.226,-42.944 42.944,-42.944 C -19.227,-42.944 0,-23.717 0,0 Z"
               style="fill:none;stroke:#acc12f;stroke-width:1.5;stroke-linecap:round;stroke-linejoin:round;stroke-miterlimit:4;stroke-dasharray:0, 6.917;stroke-dashoffset:0;stroke-opacity:1"
               id="path756" />
          </g>
        </g>
      </g>
    </g>
  </g>
</svg>
