<?xml version="1.0" encoding="UTF-8"?>
<!-- Created with Inkscape (http://www.inkscape.org/) -->
<svg width="65.315mm" height="8.4132mm" version="1.1" viewBox="0 0 65.315 8.4132" xmlns="http://www.w3.org/2000/svg"><defs><clipPath id="clipPath10385"><rect x="42.113" y="50.923" width="79.375" height="79.375" fill="#fff" stroke-width=".26458"/></clipPath><clipPath id="clipPath10393"><rect x="42.113" y="50.923" width="79.375" height="79.375" fill="#fff" stroke-width=".26458"/></clipPath><clipPath id="clipPath10401"><rect x="42.113" y="50.923" width="79.375" height="79.375" fill="#fff" stroke-width=".26458"/></clipPath><clipPath id="clipPath10409"><rect x="42.113" y="50.923" width="79.375" height="79.375" fill="#fff" stroke-width=".26458"/></clipPath><clipPath id="clipPath10417"><rect x="42.113" y="50.923" width="79.375" height="79.375" fill="#fff" stroke-width=".26458"/></clipPath><clipPath id="clipPath10425"><rect x="42.113" y="50.923" width="79.375" height="79.375" fill="#fff" stroke-width=".26458"/></clipPath><clipPath id="clipPath10433"><rect x="42.113" y="50.923" width="79.375" height="79.375" fill="#fff" stroke-width=".26458"/></clipPath><clipPath id="clipPath10441"><rect x="42.113" y="50.923" width="79.375" height="79.375" fill="#fff" stroke-width=".26458"/></clipPath></defs><g transform="translate(-49.117 -86.377)" fill="#acc12f" stroke-width=".26458"><path d="m67.669 86.759c0-0.21034-0.16933-0.37941-0.37835-0.37941h-0.83608c-0.17198 0-0.32279 0.11377-0.36777 0.27993l-0.18785 0.68395c-0.02646 0.10239-0.15346 0.13573-0.23283 0.06085l-0.79904-0.80036c-0.14552-0.14393-0.33602-0.22146-0.5371-0.22146h-2.4977c-0.20373 0-0.39688 0.08017-0.5371 0.22146l-2.2886 2.2876c-0.14288 0.14393-0.22225 0.33496-0.22225 0.53737v2.3151c0 0.20214 0.08202 0.39608 0.22225 0.5371l2.2886 2.2876c0.14288 0.14393 0.33338 0.22146 0.5371 0.22146h2.4977c0.20108 0 0.39423-0.08017 0.5371-0.2241l0.79904-0.80036c0.07673-0.07488 0.20373-0.04154 0.23283 0.06085l0.18785 0.68395c0.04498 0.16351 0.19844 0.27966 0.36777 0.27966h0.83608c0.20902 0 0.37835-0.1688 0.37835-0.37941zm-1.8362 0.81148-1.1906-1.1909zm-4.9768 0.52626h4.7387c0.10583 0 0.1905 0.08572 0.1905 0.19103v4.5945c0 0.10504-0.08467 0.19103-0.1905 0.19103h-4.7387c-0.10583 0-0.1905-0.08599-0.1905-0.19103v-4.5945c0-0.1053 0.08467-0.19103 0.1905-0.19103z" clip-path="url(#clipPath10441)"/><path d="m55.337 86.709-1.8309 2.689c-0.0344 0.05265-0.0926 0.08308-0.1561 0.08308h-2.159c-0.10319 0-0.1905-0.08572-0.1905-0.19103v-2.5339c0-0.21061-0.16933-0.37941-0.37835-0.37941h-1.1245c-0.21167 0-0.381 0.17171-0.381 0.37941v7.6518c0 0.21034 0.16933 0.37941 0.381 0.37941h1.1245c0.20902 0 0.37835-0.16907 0.37835-0.37941v-3.0049c0-0.10504 0.08731-0.19103 0.1905-0.19103h4.3154c0.10583 0 0.1905 0.08599 0.1905 0.19103l0.0053 3.0049c0 0.21034 0.17198 0.37941 0.381 0.37941h1.1218c0.20902 0 0.37835-0.16907 0.37835-0.37941v-2.7001c0-0.21325-0.08731-0.4154-0.24606-0.55959l-1.614-1.4843c-0.06879-0.06376-0.08202-0.1688-0.0291-0.24633l1.6589-2.4482c0.17198-0.25215-0.01058-0.59267-0.31485-0.59267h-1.0716c-0.25135 0-0.48683 0.12462-0.62971 0.33232z" clip-path="url(#clipPath10433)"/><path d="m91.209 86.377h-1.1245c-0.21167 0-0.37835 0.1688-0.37835 0.37941v4.8241c0 0.30189 0.11906 0.59267 0.33338 0.80592l2.0664 2.0659c0.21431 0.21325 0.50535 0.33523 0.80698 0.33523h4.281c0.20902 0 0.37835-0.16907 0.37835-0.37941v-0.95832c0-0.21034-0.16933-0.37941-0.37835-0.37941h-5.4107c-0.10583 0-0.19315-0.08573-0.19315-0.19103v-6.123c0-0.21061-0.16669-0.37941-0.37835-0.37941z" clip-path="url(#clipPath10425)"/><path d="m114.05 86.377h-1.1271c-0.20902 0-0.37835 0.16986-0.37835 0.37941v7.6544c0 0.20955 0.16933 0.37941 0.37835 0.37941h1.1271c0.20902 0 0.37835-0.16986 0.37835-0.37941v-7.6544c0-0.20955-0.16933-0.37941-0.37835-0.37941z" clip-path="url(#clipPath10417)"/><path d="m100.8 92.636h-1.397c-0.20902 0-0.37835 0.16986-0.37835 0.37941v1.3957c0 0.20955 0.16933 0.37941 0.37835 0.37941h1.397c0.20902 0 0.37836-0.16986 0.37836-0.37941v-1.3957c0-0.20955-0.16934-0.37941-0.37836-0.37941z" clip-path="url(#clipPath10409)"/><path d="m88.318 86.759c0-0.21034-0.16933-0.37941-0.37836-0.37941h-0.83608c-0.17198 0-0.32279 0.11377-0.36512 0.27993l-0.1905 0.68395c-0.02646 0.10239-0.15346 0.13573-0.23283 0.06085l-0.79904-0.80036c-0.14288-0.14393-0.33602-0.22146-0.5371-0.22146h-2.4977c-0.20373 0-0.39688 0.08017-0.5371 0.22146l-2.2886 2.2876c-0.14288 0.14393-0.22225 0.33496-0.22225 0.53737v2.3151c0 0.20214 0.08202 0.39608 0.22225 0.5371l2.2886 2.2876c0.14288 0.14393 0.33338 0.22146 0.5371 0.22146h2.4977c0.20108 0 0.39688-0.08017 0.5371-0.2241l0.79904-0.80036c0.07673-0.07488 0.20373-0.04154 0.23283 0.06085l0.1905 0.68395c0.04233 0.16351 0.19579 0.27966 0.36512 0.27966h0.83608c0.20902 0 0.37836-0.1688 0.37836-0.37941zm-1.8362 0.81148-1.1906-1.1909zm-4.9768 0.52626h4.7387c0.10583 0 0.1905 0.08572 0.1905 0.19103v4.5945c0 0.10504-0.08467 0.19103-0.1905 0.19103h-4.7387c-0.10319 0-0.1905-0.08599-0.1905-0.19103v-4.5945c0-0.1053 0.08731-0.19103 0.1905-0.19103z" clip-path="url(#clipPath10401)"/><path d="m111.16 86.759c0-0.21034-0.16669-0.37941-0.37835-0.37941h-0.83609c-0.17198 0-0.32279 0.11377-0.36512 0.27993l-0.18786 0.68395c-0.0291 0.10239-0.1561 0.13573-0.23283 0.06085l-0.80169-0.80036c-0.14287-0.14393-0.33602-0.22146-0.5371-0.22146h-2.4977c-0.20108 0-0.39687 0.08017-0.5371 0.22146l-2.2886 2.2876c-0.14287 0.14393-0.2196 0.33496-0.2196 0.53737v2.3151c0 0.20214 0.0794 0.39608 0.2196 0.5371l2.2886 2.2876c0.14287 0.14393 0.33602 0.22146 0.5371 0.22146h2.4977c0.20108 0 0.39687-0.08017 0.5371-0.2241l0.80169-0.80036c0.0741-0.07488 0.20108-0.04154 0.23283 0.06085l0.18786 0.68395c0.0423 0.16351 0.19579 0.27966 0.36512 0.27966h0.83609c0.21166 0 0.37835-0.1688 0.37835-0.37941zm-1.8362 0.81148-1.1906-1.1909zm-4.9742 0.52626h4.736c0.10583 0 0.19314 0.08572 0.19314 0.19103v4.5945c0 0.10504-0.0873 0.19103-0.19314 0.19103h-4.736c-0.10584 0-0.19315-0.08599-0.19315-0.19103v-4.5945c0-0.1053 0.0873-0.19103 0.19315-0.19103z" clip-path="url(#clipPath10393)"/><path d="m76.157 86.759v6.1233c0 0.10504-0.08467 0.19103-0.1905 0.19103h-2.2093c-0.20373 0-0.39688-0.08043-0.5371-0.22146l-2.0558-2.055c-0.14288-0.14393-0.22225-0.33496-0.22225-0.5371v-3.5007c0-0.21034-0.16933-0.37941-0.37835-0.37941h-1.1245c-0.21167 0-0.37835 0.16907-0.37835 0.37941v4.1431c0 0.20214 0.07937 0.39608 0.2196 0.5371l3.13 3.1295c0.14023 0.14129 0.33602 0.22146 0.5371 0.22146h4.7202c0.20902 0 0.37836-0.17172 0.37836-0.37941v-7.6518c0-0.21034-0.16933-0.37941-0.37836-0.37941h-1.1245c-0.21167 0-0.381 0.16907-0.381 0.37941z" clip-path="url(#clipPath10385)"/></g></svg>
