<?xml version="1.0" encoding="UTF-8" standalone="no"?>
<!-- Created with Inkscape (http://www.inkscape.org/) -->

<svg
   width="79.375mm"
   height="79.375mm"
   viewBox="0 0 79.375 79.375"
   version="1.1"
   id="svg1291"
   inkscape:version="1.2.2 (b0a8486541, 2022-12-01)"
   sodipodi:docname="logo.svg"
   xmlns:inkscape="http://www.inkscape.org/namespaces/inkscape"
   xmlns:sodipodi="http://sodipodi.sourceforge.net/DTD/sodipodi-0.dtd"
   xmlns="http://www.w3.org/2000/svg"
   xmlns:svg="http://www.w3.org/2000/svg">
  <sodipodi:namedview
     id="namedview1293"
     pagecolor="#ffffff"
     bordercolor="#666666"
     borderopacity="1.0"
     inkscape:showpageshadow="2"
     inkscape:pageopacity="0.0"
     inkscape:pagecheckerboard="0"
     inkscape:deskcolor="#d1d1d1"
     inkscape:document-units="mm"
     showgrid="false"
     inkscape:zoom="0.5946522"
     inkscape:cx="94.172694"
     inkscape:cy="219.45601"
     inkscape:window-width="2560"
     inkscape:window-height="1376"
     inkscape:window-x="0"
     inkscape:window-y="0"
     inkscape:window-maximized="1"
     inkscape:current-layer="layer1" />
  <defs
     id="defs1288">
    <clipPath
       id="clip12_1_2">
      <rect
         width="300"
         height="300"
         fill="#ffffff"
         transform="translate(2417,120)"
         id="rect709"
         x="0"
         y="0" />
    </clipPath>
    <clipPath
       id="clip13_1_2">
      <rect
         width="300"
         height="300"
         fill="#ffffff"
         transform="translate(2417,120)"
         id="rect712"
         x="0"
         y="0" />
    </clipPath>
    <clipPath
       id="clip14_1_2">
      <rect
         width="300"
         height="300"
         fill="#ffffff"
         transform="translate(2417,120)"
         id="rect715"
         x="0"
         y="0" />
    </clipPath>
  </defs>
  <g
     inkscape:label="Layer 1"
     inkscape:groupmode="layer"
     id="layer1"
     transform="translate(-42.113339,-50.92267)">
    <g
       clip-path="url(#clip12_1_2)"
       id="g671"
       transform="matrix(0.26458333,0,0,0.26458333,-597.38457,19.17267)">
      <rect
         width="300"
         height="300"
         transform="translate(2417,120)"
         fill="#ffffff"
         id="rect645"
         x="0"
         y="0" />
      <g
         clip-path="url(#clip13_1_2)"
         id="g669">
        <rect
           width="300"
           height="300"
           transform="translate(2417,120)"
           fill="#ffffff"
           id="rect647"
           x="0"
           y="0" />
        <g
           clip-path="url(#clip14_1_2)"
           id="g651">
          <path
             d="m 2717,120 h -300 v 300 h 300 z"
             fill="#002626"
             id="path649" />
        </g>
        <path
           d="m 2513.59,255.444 c 0,-0.795 -0.64,-1.434 -1.43,-1.434 H 2509 c -0.65,0 -1.22,0.43 -1.39,1.058 l -0.71,2.585 c -0.1,0.387 -0.58,0.513 -0.88,0.23 l -3.02,-3.025 c -0.55,-0.544 -1.27,-0.837 -2.03,-0.837 h -9.44 c -0.77,0 -1.5,0.303 -2.03,0.837 l -8.65,8.646 c -0.54,0.544 -0.84,1.266 -0.84,2.031 v 8.75 c 0,0.764 0.31,1.497 0.84,2.03 l 8.65,8.646 c 0.54,0.544 1.26,0.837 2.03,0.837 h 9.44 c 0.76,0 1.49,-0.303 2.03,-0.847 l 3.02,-3.025 c 0.29,-0.283 0.77,-0.157 0.88,0.23 l 0.71,2.585 c 0.17,0.618 0.75,1.057 1.39,1.057 h 3.16 c 0.79,0 1.43,-0.638 1.43,-1.434 z m -6.94,3.067 -4.5,-4.501 z m -18.81,1.989 h 17.91 c 0.4,0 0.72,0.324 0.72,0.722 v 17.365 c 0,0.397 -0.32,0.722 -0.72,0.722 h -17.91 c -0.4,0 -0.72,-0.325 -0.72,-0.722 v -17.365 c 0,-0.398 0.32,-0.722 0.72,-0.722 z"
           fill="#acc12f"
           id="path653" />
        <path
           d="m 2466.98,255.256 -6.92,10.163 c -0.13,0.199 -0.35,0.314 -0.59,0.314 h -8.16 c -0.39,0 -0.72,-0.324 -0.72,-0.722 v -9.577 c 0,-0.796 -0.64,-1.434 -1.43,-1.434 h -4.25 c -0.8,0 -1.44,0.649 -1.44,1.434 v 28.92 c 0,0.795 0.64,1.434 1.44,1.434 h 4.25 c 0.79,0 1.43,-0.639 1.43,-1.434 v -11.357 c 0,-0.397 0.33,-0.722 0.72,-0.722 h 16.31 c 0.4,0 0.72,0.325 0.72,0.722 l 0.02,11.357 c 0,0.795 0.65,1.434 1.44,1.434 h 4.24 c 0.79,0 1.43,-0.639 1.43,-1.434 v -10.205 c 0,-0.806 -0.33,-1.57 -0.93,-2.115 l -6.1,-5.61 c -0.26,-0.241 -0.31,-0.638 -0.11,-0.931 l 6.27,-9.253 c 0.65,-0.953 -0.04,-2.24 -1.19,-2.24 h -4.05 c -0.95,0 -1.84,0.471 -2.38,1.256 z"
           fill="#acc12f"
           id="path655" />
        <path
           d="m 2602.56,254 h -4.25 c -0.8,0 -1.43,0.638 -1.43,1.434 v 18.233 c 0,1.141 0.45,2.24 1.26,3.046 l 7.81,7.808 c 0.81,0.806 1.91,1.267 3.05,1.267 h 16.18 c 0.79,0 1.43,-0.639 1.43,-1.434 v -3.622 c 0,-0.795 -0.64,-1.434 -1.43,-1.434 h -20.45 c -0.4,0 -0.73,-0.324 -0.73,-0.722 v -23.142 c 0,-0.796 -0.63,-1.434 -1.43,-1.434 z"
           fill="#acc12f"
           id="path657" />
        <path
           d="m 2688.9,254 h -4.26 c -0.79,0 -1.43,0.642 -1.43,1.434 v 28.93 c 0,0.792 0.64,1.434 1.43,1.434 h 4.26 c 0.79,0 1.43,-0.642 1.43,-1.434 v -28.93 c 0,-0.792 -0.64,-1.434 -1.43,-1.434 z"
           fill="#acc12f"
           id="path659" />
        <path
           d="m 2638.82,277.655 h -5.28 c -0.79,0 -1.43,0.642 -1.43,1.434 v 5.275 c 0,0.792 0.64,1.434 1.43,1.434 h 5.28 c 0.79,0 1.43,-0.642 1.43,-1.434 v -5.275 c 0,-0.792 -0.64,-1.434 -1.43,-1.434 z"
           fill="#acc12f"
           id="path661" />
        <path
           d="m 2591.63,255.444 c 0,-0.795 -0.64,-1.434 -1.43,-1.434 h -3.16 c -0.65,0 -1.22,0.43 -1.38,1.058 l -0.72,2.585 c -0.1,0.387 -0.58,0.513 -0.88,0.23 l -3.02,-3.025 c -0.54,-0.544 -1.27,-0.837 -2.03,-0.837 h -9.44 c -0.77,0 -1.5,0.303 -2.03,0.837 l -8.65,8.646 c -0.54,0.544 -0.84,1.266 -0.84,2.031 v 8.75 c 0,0.764 0.31,1.497 0.84,2.03 l 8.65,8.646 c 0.54,0.544 1.26,0.837 2.03,0.837 h 9.44 c 0.76,0 1.5,-0.303 2.03,-0.847 l 3.02,-3.025 c 0.29,-0.283 0.77,-0.157 0.88,0.23 l 0.72,2.585 c 0.16,0.618 0.74,1.057 1.38,1.057 h 3.16 c 0.79,0 1.43,-0.638 1.43,-1.434 z m -6.94,3.067 -4.5,-4.501 z m -18.81,1.989 h 17.91 c 0.4,0 0.72,0.324 0.72,0.722 v 17.365 c 0,0.397 -0.32,0.722 -0.72,0.722 h -17.91 c -0.39,0 -0.72,-0.325 -0.72,-0.722 v -17.365 c 0,-0.398 0.33,-0.722 0.72,-0.722 z"
           fill="#acc12f"
           id="path663" />
        <path
           d="m 2677.97,255.444 c 0,-0.795 -0.63,-1.434 -1.43,-1.434 h -3.16 c -0.65,0 -1.22,0.43 -1.38,1.058 l -0.71,2.585 c -0.11,0.387 -0.59,0.513 -0.88,0.23 l -3.03,-3.025 c -0.54,-0.544 -1.27,-0.837 -2.03,-0.837 h -9.44 c -0.76,0 -1.5,0.303 -2.03,0.837 l -8.65,8.646 c -0.54,0.544 -0.83,1.266 -0.83,2.031 v 8.75 c 0,0.764 0.3,1.497 0.83,2.03 l 8.65,8.646 c 0.54,0.544 1.27,0.837 2.03,0.837 h 9.44 c 0.76,0 1.5,-0.303 2.03,-0.847 l 3.03,-3.025 c 0.28,-0.283 0.76,-0.157 0.88,0.23 l 0.71,2.585 c 0.16,0.618 0.74,1.057 1.38,1.057 h 3.16 c 0.8,0 1.43,-0.638 1.43,-1.434 z m -6.94,3.067 -4.5,-4.501 z m -18.8,1.989 h 17.9 c 0.4,0 0.73,0.324 0.73,0.722 v 17.365 c 0,0.397 -0.33,0.722 -0.73,0.722 h -17.9 c -0.4,0 -0.73,-0.325 -0.73,-0.722 v -17.365 c 0,-0.398 0.33,-0.722 0.73,-0.722 z"
           fill="#acc12f"
           id="path665" />
        <path
           d="m 2545.67,255.444 v 23.143 c 0,0.397 -0.32,0.722 -0.72,0.722 h -8.35 c -0.77,0 -1.5,-0.304 -2.03,-0.837 l -7.77,-7.767 c -0.54,-0.544 -0.84,-1.266 -0.84,-2.03 v -13.231 c 0,-0.795 -0.64,-1.434 -1.43,-1.434 h -4.25 c -0.8,0 -1.43,0.639 -1.43,1.434 v 15.659 c 0,0.764 0.3,1.497 0.83,2.03 l 11.83,11.828 c 0.53,0.534 1.27,0.837 2.03,0.837 4.19,0 14.12,0 17.84,0 0.79,0 1.43,-0.649 1.43,-1.434 v -28.92 c 0,-0.795 -0.64,-1.434 -1.43,-1.434 h -4.25 c -0.8,0 -1.44,0.639 -1.44,1.434 z"
           fill="#acc12f"
           id="path667" />
      </g>
    </g>
  </g>
</svg>
