<?xml version="1.0" encoding="UTF-8"?>
<!-- Created with Inkscape (http://www.inkscape.org/) -->
<svg width="121.71mm" height="20.75mm" version="1.1" viewBox="0 0 121.71 20.75" xmlns="http://www.w3.org/2000/svg"><defs><clipPath id="clipPath19665"><rect x="-394.35" y="-10.375" width="121.71" height="20.75" fill="#fff" stroke-width=".26458"/></clipPath><clipPath id="clipPath19671"><rect x="-394.35" y="-10.375" width="121.71" height="20.75" fill="#fff" stroke-width=".26458"/></clipPath><clipPath id="clipPath19677"><rect x="-394.35" y="-10.375" width="121.71" height="20.75" fill="#fff" stroke-width=".26458"/></clipPath><clipPath id="clipPath19683"><rect x="-394.35" y="-10.375" width="121.71" height="20.75" fill="#fff" stroke-width=".26458"/></clipPath><clipPath id="clipPath19689"><rect x="-394.35" y="-10.375" width="121.71" height="20.75" fill="#fff" stroke-width=".26458"/></clipPath><clipPath id="clipPath19695"><rect x="-394.35" y="-10.375" width="121.71" height="20.75" fill="#fff" stroke-width=".26458"/></clipPath><clipPath id="clipPath19701"><rect x="-394.35" y="-10.375" width="121.71" height="20.75" fill="#fff" stroke-width=".26458"/></clipPath><clipPath id="clipPath19707"><rect x="-394.35" y="-10.375" width="121.71" height="20.75" fill="#fff" stroke-width=".26458"/></clipPath><clipPath id="clipPath19713"><rect x="-394.35" y="-10.375" width="121.71" height="20.75" fill="#fff" stroke-width=".26458"/></clipPath></defs><g transform="translate(394.35 10.375)" fill="#acc12f" stroke-width=".26458"><path d="m-341.78-1.4985c0-0.31115-0.24977-0.56092-0.56092-0.56092h-1.2367c-0.25373 0-0.47493 0.16801-0.54028 0.41354l-0.2786 1.0112c-0.0408 0.15161-0.22913 0.20082-0.3437 0.090223l-1.1835-1.1832c-0.21272-0.21299-0.4953-0.32755-0.79428-0.32755h-3.693c-0.29898 0-0.58552 0.11853-0.79428 0.32755l-3.3819 3.3819c-0.21298 0.21272-0.32755 0.4953-0.32755 0.79428v3.4229c0 0.29871 0.1188 0.58526 0.32755 0.79428l3.3819 3.3819c0.21299 0.21272 0.4953 0.32755 0.79428 0.32755h3.693c0.29898 0 0.58553-0.1188 0.79428-0.33179l1.1835-1.1832c0.11033-0.1106 0.29872-0.061383 0.3437 0.089958l0.2786 1.0115c0.0654 0.24156 0.29052 0.41354 0.54028 0.41354h1.2367c0.31115 0 0.56092-0.24977 0.56092-0.56092zm-2.7146 1.1996-1.7605-1.7605zm-7.3575 0.77787h7.0054c0.15557 0 0.28257 0.127 0.28257 0.28257v6.7926c0 0.15558-0.127 0.28231-0.28257 0.28231h-7.0054c-0.15557 0-0.28257-0.12674-0.28257-0.28231v-6.7926c0-0.15558 0.127-0.28257 0.28257-0.28257z" clip-path="url(#clipPath19713)"/><path d="m-360.01-1.5721-2.7064 3.9754c-0.0532 0.077787-0.13918 0.12303-0.23337 0.12303h-3.1896c-0.15557 0-0.28231-0.127-0.28231-0.28258v-3.7462c0-0.31115-0.24977-0.56092-0.56092-0.56092h-1.6624c-0.31115 0-0.56092 0.25374-0.56092 0.56092v11.313c0 0.31115 0.24977 0.56092 0.56092 0.56092h1.6624c0.31115 0 0.56092-0.24977 0.56092-0.56092v-4.4424c0-0.15558 0.12674-0.28258 0.28231-0.28258h6.3791c0.15558 0 0.28258 0.127 0.28258 0.28258l8e-3 4.4424c0 0.31115 0.25374 0.56092 0.56092 0.56092h1.6581c0.31115 0 0.56092-0.24977 0.56092-0.56092v-3.992c0-0.31512-0.13097-0.6141-0.36433-0.82709l-2.3871-2.1945c-0.1024-0.094192-0.1188-0.24977-0.041-0.36433l2.4527-3.6195c0.25374-0.37253-0.0164-0.87604-0.46699-0.87604h-1.5843c-0.37253 0-0.72073 0.18415-0.92948 0.49133z" clip-path="url(#clipPath19707)"/><path d="m-306.98-2.0634h-1.6621c-0.31115 0-0.56091 0.24977-0.56091 0.56092v7.1321c0 0.44635 0.17594 0.8763 0.4953 1.1917l3.0544 3.0543c0.31538 0.31512 0.74533 0.4953 1.1914 0.4953h6.3299c0.31115 0 0.56091-0.24977 0.56091-0.56092v-1.4166c0-0.31115-0.24976-0.56092-0.56091-0.56092h-8.0002c-0.15558 0-0.28258-0.127-0.28258-0.28257v-9.0525c0-0.31115-0.24976-0.56092-0.56091-0.56092z" clip-path="url(#clipPath19701)"/><path d="m-273.2-2.0634h-1.6663c-0.30983 0-0.56092 0.25109-0.56092 0.56092v11.317c0 0.30956 0.25109 0.56092 0.56092 0.56092h1.6663c0.30983 0 0.56092-0.25135 0.56092-0.56092v-11.317c0-0.30983-0.25109-0.56092-0.56092-0.56092z" clip-path="url(#clipPath19695)"/><path d="m-292.79 7.1896h-2.0638c-0.30982 0-0.56091 0.25135-0.56091 0.56092v2.0638c0 0.30956 0.25109 0.56092 0.56091 0.56092h2.0638c0.30957 0 0.56092-0.25135 0.56092-0.56092v-2.0638c0-0.30956-0.25135-0.56092-0.56092-0.56092z" clip-path="url(#clipPath19689)"/><path d="m-311.25-1.4985c0-0.31115-0.24977-0.56092-0.56092-0.56092h-1.2364c-0.254 0-0.4752 0.16801-0.54055 0.41354l-0.27834 1.0112c-0.041 0.15161-0.22939 0.20082-0.34396 0.090223l-1.1832-1.1832c-0.21299-0.21299-0.49557-0.32755-0.79455-0.32755h-3.693c-0.29872 0-0.58552 0.11853-0.79428 0.32755l-3.3819 3.3819c-0.21298 0.21272-0.32755 0.4953-0.32755 0.79428v3.4229c0 0.29871 0.1188 0.58526 0.32755 0.79428l3.3819 3.3819c0.21299 0.21272 0.49556 0.32755 0.79428 0.32755h3.693c0.29898 0 0.58553-0.1188 0.79455-0.33179l1.1832-1.1832c0.1106-0.1106 0.29872-0.061383 0.34396 0.089958l0.27834 1.0115c0.0654 0.24156 0.29078 0.41354 0.54055 0.41354h1.2364c0.31115 0 0.56092-0.24977 0.56092-0.56092zm-2.7146 1.1996-1.7605-1.7605zm-7.3575 0.77787h7.0054c0.15557 0 0.28257 0.127 0.28257 0.28257v6.7926c0 0.15558-0.127 0.28231-0.28257 0.28231h-7.0054c-0.15557 0-0.28257-0.12674-0.28257-0.28231v-6.7926c0-0.15558 0.127-0.28257 0.28257-0.28257z" clip-path="url(#clipPath19683)"/><path d="m-277.48-1.4985c0-0.31115-0.24976-0.56092-0.56091-0.56092h-1.2364c-0.25374 0-0.47493 0.16801-0.54055 0.41354l-0.27834 1.0112c-0.041 0.15161-0.22913 0.20082-0.34396 0.090223l-1.1832-1.1832c-0.21299-0.21299-0.4953-0.32755-0.79428-0.32755h-3.6931c-0.29897 0-0.58552 0.11853-0.79427 0.32755l-3.3819 3.3819c-0.21299 0.21272-0.32755 0.4953-0.32755 0.79428v3.4229c0 0.29871 0.11853 0.58526 0.32755 0.79428l3.3819 3.3819c0.21272 0.21272 0.4953 0.32755 0.79427 0.32755h3.6931c0.29898 0 0.58552-0.1188 0.79428-0.33179l1.1832-1.1832c0.1106-0.1106 0.29898-0.061383 0.34396 0.089958l0.27834 1.0115c0.0656 0.24156 0.29078 0.41354 0.54055 0.41354h1.2364c0.31115 0 0.56091-0.24977 0.56091-0.56092zm-2.7144 1.1996-1.7605-1.7605zm-7.3575 0.77787h7.0054c0.15558 0 0.28258 0.127 0.28258 0.28257v6.7926c0 0.15558-0.127 0.28231-0.28258 0.28231h-7.0054c-0.15558 0-0.28258-0.12674-0.28258-0.28231v-6.7926c0-0.15558 0.127-0.28257 0.28258-0.28257z" clip-path="url(#clipPath19677)"/><path d="m-329.23-1.4985v9.0527c0 0.15558-0.127 0.28231-0.28258 0.28231h-3.2673c-0.29898 0-0.58552-0.11853-0.79428-0.32755l-3.0379-3.0379c-0.21299-0.21299-0.32756-0.4953-0.32756-0.79428v-5.1752c0-0.31115-0.24976-0.56092-0.56091-0.56092h-1.6624c-0.31115 0-0.56092 0.24977-0.56092 0.56092v6.1251c0 0.29898 0.1188 0.58552 0.32756 0.79428l4.6265 4.6268c0.20902 0.20876 0.49557 0.32755 0.79428 0.32755h6.9768c0.31115 0 0.56092-0.254 0.56092-0.56092v-11.313c0-0.31115-0.24977-0.56092-0.56092-0.56092h-1.6621c-0.31142 0-0.56092 0.24977-0.56092 0.56092z" clip-path="url(#clipPath19671)"/><path d="m-374.46 9.3883-11.231-11.227c-0.21696-0.21696-0.33972-0.51197-0.33972-0.81889v-7.1406c0-0.31935-0.25797-0.57732-0.57732-0.57732h-7.1652c-0.52811 0-0.78185 0.64691-0.39291 1.0073l7.5785 6.9726c0.2376 0.22119 0.3728 0.52811 0.3728 0.85169v11.345c0 0.31935 0.25797 0.57732 0.57732 0.57732h10.764c0.51594 0 0.7739-0.6223 0.40957-0.99086z" clip-path="url(#clipPath19665)"/></g></svg>
